<svg xmlns="http://www.w3.org/2000/svg" width="25.191" height="22" viewBox="0 0 25.191 22">
    <defs>
        <style>.a{fill:#3b5595;}</style>
    </defs>
    <g transform="translate(0)">
        <path class="a" d="M82.331,380.16l-12.715,22q-1.464-2.576-2.923-5.152l.918-.875c.612-.579,1.229-1.148,1.842-1.732a9.994,9.994,0,0,0,1.21-1.306c-.067-.258-.115-.536-.158-.794a6.869,6.869,0,0,1-.172-1.521,1.564,1.564,0,0,1,.378-.832,7.275,7.275,0,0,1,.756-.885,3.646,3.646,0,0,0-.182-.689,3.927,3.927,0,0,0-.78-1.239,3.681,3.681,0,0,0,1.076-.067,3.9,3.9,0,0,0,1.105-.431,4.743,4.743,0,0,0,.641-.416c.373-.029.741-.038,1.143-.034.474.01.99.034,1.5.077l.6.057a1.423,1.423,0,0,0-.541-.646,2.034,2.034,0,0,0-.713-.316,6.963,6.963,0,0,0-1.186-.019,1.889,1.889,0,0,1-.981-.239c-.249-.153-.445-.4-.679-.574a3.427,3.427,0,0,0-1.325-.493,8.641,8.641,0,0,0-2.067-.306,5.2,5.2,0,0,0-2.641.856,11.562,11.562,0,0,0-1.445,1.3,7.99,7.99,0,0,1,.067,1.014,1.5,1.5,0,0,1-.191.88,7.1,7.1,0,0,1-1.033,1.086,4.279,4.279,0,0,1-1.22.942c-.077-.129-.148-.263-.22-.392l-.344-.6q-2.461-4.327-4.908-8.654Zm-10.9,10.864a7.225,7.225,0,0,0,.086-1.54,4.455,4.455,0,0,0-.311.364c-.081.1-.158.2-.234.306-.038.048-.072.1-.105.143a1.246,1.246,0,0,0-.081.134c-.024.038-.043.081-.062.12a1.318,1.318,0,0,0-.038.129.741.741,0,0,0-.024.148,1.548,1.548,0,0,0,0,.211,2.352,2.352,0,0,0,.019.263q.014.151.043.3c.014.11.033.22.053.335.024.144.053.287.077.431.019.115.038.23.062.34.029-.057.062-.115.091-.172A5.246,5.246,0,0,0,71.429,391.024Zm-6.7-3.932v-.182c0-.129,0-.258-.01-.383s-.014-.244-.024-.364a7.29,7.29,0,0,0-.751.737,4.932,4.932,0,0,0-.718,1.244,11.4,11.4,0,0,1-.478,1.072l-.144.244c.077-.043.153-.091.225-.139.053-.038.1-.077.148-.115.1-.077.182-.153.268-.234s.2-.182.292-.273.177-.172.263-.253l.273-.258c.072-.072.144-.139.215-.21s.115-.124.172-.191a1.29,1.29,0,0,0,.12-.163.648.648,0,0,0,.072-.124.941.941,0,0,0,.038-.124.613.613,0,0,0,.024-.129C64.722,387.192,64.722,387.144,64.727,387.092Z" transform="translate(-57.14 -380.16)"/>
    </g>
    <path class="a" d="M84.874,390.373a.347.347,0,0,1-.225.326.891.891,0,0,1-.41.084.915.915,0,0,1-.408-.1.425.425,0,0,1-.259-.311.347.347,0,0,1,.225-.327.894.894,0,0,1,.41-.084.913.913,0,0,1,.408.1A.425.425,0,0,1,84.874,390.373Z" transform="translate(-70.966 -385.285)"/>
    <path class="a" d="M69.68,407.325a.506.506,0,0,1-.021-.47.484.484,0,0,0-.27.054c-.042.021-.081.046-.121.07l-.121.07-.482.281-2.3-4.046c.048-.019.219-.12.263-.146l.261-.151c.087-.05.174-.1.261-.151a.507.507,0,0,0,.2-.22.506.506,0,0,1-.418-.721.494.494,0,0,0-.236.038c-.045.019-.168.092-.21.117l-.416.241c-.15.087-.271.137-.351.314a.507.507,0,0,0,.413.712l.012.2A8.009,8.009,0,0,1,66.055,406a11.672,11.672,0,0,1-1.1,2.3,11.284,11.284,0,0,0-.89,2.3,2.815,2.815,0,0,0-.123,1.35,1.988,1.988,0,0,0,1.043,1.258,2.434,2.434,0,0,0,1.841.092,4.393,4.393,0,0,0,1.779-1.319,12.422,12.422,0,0,0,1.528-2.075l-.965-1.7.488-.283.122-.071c.041-.023.082-.046.121-.071a.486.486,0,0,0,.183-.21A.505.505,0,0,1,69.68,407.325Z" transform="translate(-60.466 -392.211)"/>
</svg>